<svg width="14" height="17" viewBox="0 0 14 17" fill="none" xmlns="http://www.w3.org/2000/svg">
<path d="M13.058 4.38524L9.52415 0.405649C9.44974 0.323198 9.35889 0.257234 9.25745 0.211999C9.15602 0.166763 9.04624 0.143259 8.93517 0.142996H2.56782C2.30338 0.139842 2.0409 0.188809 1.79539 0.287102C1.54987 0.385395 1.32612 0.531088 1.13691 0.715861C0.9477 0.900635 0.796742 1.12087 0.692655 1.36399C0.588568 1.60711 0.533391 1.86835 0.530273 2.13279V14.0716C0.533391 14.336 0.588568 14.5973 0.692655 14.8404C0.796742 15.0835 0.9477 15.3037 1.13691 15.4885C1.32612 15.6733 1.54987 15.819 1.79539 15.9173C2.0409 16.0155 2.30338 16.0645 2.56782 16.0614H11.2274C11.4919 16.0645 11.7543 16.0155 11.9999 15.9173C12.2454 15.819 12.4691 15.6733 12.6583 15.4885C12.8475 15.3037 12.9985 15.0835 13.1026 14.8404C13.2067 14.5973 13.2618 14.336 13.265 14.0716V4.91851C13.2645 4.72125 13.1907 4.53121 13.058 4.38524ZM4.50987 8.10218H6.89762C7.10871 8.10218 7.31116 8.18604 7.46042 8.3353C7.60968 8.48456 7.69354 8.68701 7.69354 8.8981C7.69354 9.10919 7.60968 9.31163 7.46042 9.4609C7.31116 9.61016 7.10871 9.69402 6.89762 9.69402H4.50987C4.29877 9.69402 4.09633 9.61016 3.94707 9.4609C3.7978 9.31163 3.71395 9.10919 3.71395 8.8981C3.71395 8.68701 3.7978 8.48456 3.94707 8.3353C4.09633 8.18604 4.29877 8.10218 4.50987 8.10218ZM9.28538 12.8777H4.50987C4.29877 12.8777 4.09633 12.7938 3.94707 12.6446C3.7978 12.4953 3.71395 12.2929 3.71395 12.0818C3.71395 11.8707 3.7978 11.6682 3.94707 11.519C4.09633 11.3697 4.29877 11.2859 4.50987 11.2859H9.28538C9.49647 11.2859 9.69891 11.3697 9.84817 11.519C9.99744 11.6682 10.0813 11.8707 10.0813 12.0818C10.0813 12.2929 9.99744 12.4953 9.84817 12.6446C9.69891 12.7938 9.49647 12.8777 9.28538 12.8777ZM9.05456 4.91851C8.89048 4.90235 8.7393 4.82239 8.63361 4.69585C8.52791 4.56931 8.47614 4.40631 8.48946 4.24198V1.73483L11.4662 4.91851H9.05456Z" fill="#8C949E"/>
</svg>
