<svg width="17" height="14" viewBox="0 0 17 14" fill="none" xmlns="http://www.w3.org/2000/svg">
<path d="M14.4691 0.73468H3.32623C2.69296 0.73468 2.08562 0.986247 1.63783 1.43404C1.19004 1.88183 0.938477 2.48916 0.938477 3.12244V11.0816C0.938477 11.7149 1.19004 12.3222 1.63783 12.77C2.08562 13.2178 2.69296 13.4694 3.32623 13.4694H14.4691C15.1024 13.4694 15.7097 13.2178 16.1575 12.77C16.6053 12.3222 16.8568 11.7149 16.8568 11.0816V3.12244C16.8568 2.48916 16.6053 1.88183 16.1575 1.43404C15.7097 0.986247 15.1024 0.73468 14.4691 0.73468ZM14.4691 2.32652L9.29562 5.88427C9.17462 5.95413 9.03737 5.9909 8.89766 5.9909C8.75795 5.9909 8.6207 5.95413 8.4997 5.88427L3.32623 2.32652H14.4691Z" fill="#8C949E"/>
</svg>
