<svg width="17" height="17" viewBox="0 0 17 17" fill="none" xmlns="http://www.w3.org/2000/svg">
<path d="M13.1956 16.0613C9.94612 16.0571 6.83091 14.7644 4.53316 12.4666C2.23541 10.1689 0.942688 7.05367 0.938477 3.80417C0.938477 2.83315 1.32421 1.9019 2.01082 1.21529C2.69744 0.528679 3.62868 0.142944 4.5997 0.142944C4.80532 0.141378 5.01059 0.160039 5.21256 0.198658C5.40781 0.22755 5.59975 0.275535 5.78562 0.341923C5.91635 0.387792 6.03284 0.466989 6.12357 0.571683C6.21431 0.676377 6.27614 0.802942 6.30297 0.938862L7.39337 5.71437C7.42277 5.844 7.41923 5.97892 7.38308 6.10683C7.34693 6.23473 7.27933 6.35155 7.18644 6.44662C7.08297 6.55805 7.07501 6.566 6.09603 7.07539C6.88 8.79526 8.25551 10.1764 9.97215 10.9674C10.4895 9.98049 10.4975 9.97254 10.6089 9.86907C10.704 9.77617 10.8208 9.70857 10.9487 9.67242C11.0766 9.63628 11.2115 9.63274 11.3411 9.66213L16.1166 10.7525C16.2482 10.7831 16.3698 10.8466 16.4701 10.9371C16.5704 11.0276 16.6459 11.1421 16.6897 11.2699C16.7569 11.4588 16.8075 11.6532 16.8409 11.8509C16.873 12.0509 16.8889 12.2532 16.8887 12.4558C16.874 13.4227 16.4774 14.3445 15.7855 15.02C15.0936 15.6955 14.1626 16.0698 13.1956 16.0613Z" fill="#8C949E"/>
</svg>
